<?xml version="1.0" encoding="utf-8"?>
<!-- Generator: Adobe Illustrator 24.0.1, SVG Export Plug-In . SVG Version: 6.00 Build 0)  -->
<svg version="1.1" id="SCP_Logo" xmlns="http://www.w3.org/2000/svg" xmlns:xlink="http://www.w3.org/1999/xlink" x="0px" y="0px"
	 viewBox="0 0 2715 2700" style="enable-background:new 0 0 2715 2700;" xml:space="preserve">
<style type="text/css">
	.st0{opacity:0.1;fill:#FFFFFF;enable-background:new    ;}
	.st1{opacity:0.1;}
	.st2{fill:#FFFFFF;}
</style>
<path id="Outer_Circle" class="st0" d="M2465,1351.8l-125-139.7c5-40.5,7.5-81.3,7.5-122.1c0-410-249.3-761.8-604.6-912.2L1684.5,0
	h-654l-58.4,177.9C616.8,328.2,367.5,680,367.5,1090c0,40.8,2.5,81.6,7.5,122.1l-125,139.7l327,566.4l183.5-38.4
	c166,125.7,372.8,200.2,597,200.2s431-74.5,597-200.2l183.5,38.4L2465,1351.8L2465,1351.8z M1933,1794.4
	c-156.7,128.5-357.1,205.6-575.5,205.6s-418.8-77.1-575.5-205.6l-164.2,34.4l-270-467.7l112.3-125.4c-7.6-47.5-11.6-96.1-11.6-145.8
	c0-389,243.9-721.1,586.9-851.2L1087.5,80h540l52.1,158.8C2022.7,369,2266.5,701,2266.5,1090c0,49.6-4,98.3-11.6,145.8l112.3,125.4
	l-270,467.7L1933,1794.4z"/>
<path class="st0" d="M2021.8,1427.3l-82.3-47.5c43.5-87.2,68-185.7,68-289.8c0-345.6-269.6-628.1-610-648.8V346h-80v95.2
	c-340.4,20.7-610,303.2-610,648.8c0,104.2,24.5,202.6,68,289.9l-82.3,47.5l40,69.3l82.4-47.6C932,1624.4,1131.3,1740,1357.5,1740
	c226.3,0,425.5-115.6,541.9-291l82.4,47.6L2021.8,1427.3z M1357.5,1620c-181.8,0-342.2-91.5-437.7-231l206.6-119.3l42.5,73.6
	l154-233.3l-279,16.7l42.5,73.7l-206.7,119.3c-33.5-69.5-52.2-147.4-52.2-229.7c0-279.2,216-508.1,490-528.5V800h-85l125,250
	l125-250h-85V561.5c274,20.4,490,249.3,490,528.5c0,82.3-18.7,160.2-52.2,229.6l-206.7-119.3l42.5-73.6l-279-16.7l154,233.3
	l42.5-73.7l206.6,119.3C1699.8,1528.4,1539.3,1620,1357.5,1620z"/>
<g class="st1">
	<path class="st2" d="M351.4,2377.9v10.2H380v19.2h-28.7v12.1h-20.9v-12.1h-30v6l0.7-2.3l21.2,5.2l-3.3,9.2h61.8v19.4h-71.1
		c-2.3,4.2-4.8,8.1-7.3,11.8h67.5v57.2h-21.3v-5.5h-51.7v5.5h-20.2v-29.7c-5.2,4-10.5,7.8-16.3,10.9c-3-4.5-10.7-13.1-15.1-17.1
		c16.3-7.6,29.7-18.9,39.7-33.1h-35.3v-19.4h46.1l2.4-6h-18.6v-12.1H251v-19.2h28.8v-10.2h20.7v10.2h30v-10.2H351.4z M348.6,2489.8
		v-14.5h-51.7v14.5H348.6z"/>
	<path class="st2" d="M417.5,2430.9v-52.8h22.2v52.8h85.1v20.9h-47.8c9.6,18.4,26.2,31.7,51.4,37.7c-4.9,4.8-11.5,14-14.5,20.2
		c-30.5-9.6-47.5-29.1-58.8-57.9h-15.4v32l28.8-5.8c0,6.3,0.9,15.4,1.9,20.3c-39.7,9.1-47.5,11.5-52.6,14.5
		c-1.2-5-4.9-13.7-7.9-17.6c3.6-1.9,7.6-5.5,7.6-12.1v-31.4h-23v-20.9H417.5z M515.7,2389.4c-14,14.7-36.1,28.5-54.4,36.6
		c-3.9-4.6-12-13.4-17-17.4c18.9-6,38.9-16.8,50.1-28.5L515.7,2389.4z"/>
	<path class="st2" d="M592,2388.6v99.4h-32.7v11.5h-19.6v-110.9H592z M572.6,2407.2h-13.2v21.6h13.2V2407.2z M559.3,2446.9v22.5
		h13.2v-22.5H559.3z M613.6,2432.1c6.6,9.4,16.4,22.3,21,30.4l-18.6,10.8c-4-8.2-13.2-21.9-19.7-32L613.6,2432.1z M659,2378.8v24.3
		h13.1v20.7H659v63.9c0,11.8-2.3,17.3-9.5,20.4c-7.2,3.3-17.9,3.9-32.3,3.7c-0.9-5.9-4.2-15.3-7.2-21c9.4,0.4,20.2,0.4,23.3,0.4
		s4.3-1,4.3-3.9v-63.6h-40.9v-20.7h40.9v-24.3H659z"/>
	<path class="st2" d="M705.9,2413.8v100.5h-21.7v-100.5H705.9z M702.7,2378.2c6.6,6.5,14.5,15.7,17.9,22.5l-17.7,11.2
		c-2.9-6.5-10.2-16.4-16.7-23.6L702.7,2378.2z M779.2,2417.8v70.8h-62.1v-70.8H779.2z M812.7,2384.4v108.4c0,9.2-1.6,13.8-6.9,17.1
		c-5.5,3.2-12.7,3.5-21.9,3.5c-0.7-5.3-3.3-13.5-5.8-18.4c3.7,0.3,8.8,0.1,10.4,0.1c1.9,0,2.3-0.7,2.3-2.4v-88.8h-67.5v-19.4H812.7z
		 M735.7,2444.9h24v-10.5h-24V2444.9z M735.7,2472.1h24v-10.7h-24V2472.1z"/>
	<path class="st2" d="M950.8,2386.4v20.4h-51.4c-0.3,6.6-0.7,13.2-1.4,19.9h60.5v20.6h-44.9v36.7c0,5.6,0.7,6.3,6.2,6.3
		c2.4,0,10.7,0,13.4,0c5.2,0,6-2.7,6.9-20.6c4.5,3.6,14.1,7.2,20,8.6c-2.3,25.5-8.1,32.4-25.1,32.4c-4,0-14.5,0-18.4,0
		c-20.2,0-25.2-6.6-25.2-26.5V2459c-7.8,22.5-23,42.2-54.4,55.3c-2.9-5.5-8.6-13.2-14.1-17.7c30.4-11.5,43.8-29.1,49.8-49.2h-47.1
		v-20.6h51c0.7-6.5,1-13.2,1.3-19.9h-43.8v-20.4H950.8z"/>
	<path class="st2" d="M978.9,2417.7c8.9,3.2,21.6,9.1,27.9,13.8l-11.7,17.4c-5.6-4.9-18-11.5-27.2-15.6L978.9,2417.7z M1000.5,2454
		l15.4,14c-7.6,15.1-16.3,30.7-25.1,45.1l-17.7-14.1C980.8,2488.2,991.7,2470.8,1000.5,2454z M988.4,2379.4
		c8.8,3.5,21.2,9.6,27.4,14.4l-12.2,17.1c-5.5-5-17.6-12-26.6-16.1L988.4,2379.4z M1014.8,2491.3c3.7-1.2,6.2-4,9.5-9.4
		c2.3-3.6,7.9-14.8,12.7-27.9h-24.3v-19.7h32.7v-17.1h-27.2v-19.7h27.2v-19.6h21.3v19.6h28.1v19.7h-28.1v17.1h33v19.7h-38
		c-5.2,12-11.4,23.6-17.7,33.8l27.6-2.7c-2.6-4.5-5.3-8.8-8.1-12.7l17.1-8.4c9.4,12.5,19.6,29.1,23.2,41l-18.9,9.5
		c-0.9-3.6-2.4-7.6-4.3-12.1c-45.1,5.6-53.1,6.9-58.5,9.5C1021,2507.7,1017.4,2497.2,1014.8,2491.3z"/>
	<path class="st2" d="M1150.3,2379.9l-0.1,22.9h30.8c0,0,0,6.6-0.1,9.2c-1.3,60.2-2.3,83.1-6.9,90c-3.7,5.5-7.1,7.3-12.1,8.5
		c-4.5,1.2-10.8,1.2-17.6,1c-0.3-5.8-2.4-14.4-5.6-20.3c-3.5,8.6-7.9,16.4-13.7,23.3c-3.2-5.2-10.1-12.4-15.3-15.7
		c15.3-18,18.9-43.2,19.7-75.6h-15v-20.4h15.3v-22.9H1150.3z M1149.7,2423.3c-1,26.1-3.6,48.7-10.9,67.2c5,0.4,9.4,0.6,12,0.6
		c2.2,0,3.5-0.7,4.9-2.9c2.7-3.7,3.7-20.6,4.8-64.9H1149.7z M1241.3,2393.5v116.6h-21v-8.6H1207v9.8h-20v-117.8H1241.3z
		 M1220.3,2481.3v-67.7H1207v67.7H1220.3z"/>
	<path class="st2" d="M1293.7,2481.8v-6.3h-16.1c-5.3,0-10.9,0.9-12.2,2.4c-1-3.9-4-13.1-6.3-18.1c2.9-0.7,5.3-3.2,7.9-6.9l2.3-3.5
		h-9.9v-16h18.4c1.3-2.9,2.4-6,3.6-9.1h-23.9v-16h29.5v-6h-22.5v-15.7h22.5v-8.6h19.9v8.6h22.6v15.7h-22.6v6h28.9
		c-0.3-9.9-0.3-20.2-0.3-30.4h20.6c-0.3,10.2-0.4,20.4-0.3,30.4h16.6c-3-5.9-9.5-14.4-14.8-20.6l15.3-9.4c5.8,6,13.1,14.7,16.4,20.4
		l-14.7,9.5h15.3v16h-33.4c0.6,11.4,1.6,22,2.7,31.5c3.6-8.1,6.6-16.7,8.9-25.8l18.6,5c-5.3,18.6-12.2,35-21.3,49.1
		c2.2,5.8,4.5,9.1,7.2,9.1c2.3,0,3.6-5.6,4.3-19.7c4,4.6,10.7,9.1,15.6,11.1c-2.9,22.9-8.6,28.5-21.7,28.5
		c-7.6,0-13.7-4.3-18.4-11.7c-4.8,5.2-10.1,10.1-15.7,14.5c-2.9-4.6-8.9-10.8-13.8-14.5c2.4-1.6,4.8-3.5,7.1-5.3l-16.7,1.6v16.3
		h-19.3v-14.7l-33.4,2.7l-1.7-18.4L1293.7,2481.8z M1313,2451.7v6.8h18.4l-0.1,17H1313v5.2l20.3-1.3l-0.1,13.8
		c3.9-3.6,7.5-7.5,10.8-11.8c-4.2-15.4-6.5-35.4-7.5-57h-45.1l10.9,2.9l-3,6.2h33.3v16h-42.5c-2,3.2-4.2,6.2-6.2,9.1h9.8v-6.8H1313z
		"/>
	<path class="st2" d="M1400.8,2509.4c11.1-3,17.7-8.9,18.9-15.1h-1c-7.9,0-15.4-5.3-15.4-14.4c0-8.8,7.2-14.4,16-14.4
		c11.4,0,17.4,8.4,17.4,21.6c0,16.7-11.1,30.8-30.5,36.1L1400.8,2509.4z"/>
	<path class="st2" d="M1507.1,2421.7v52.8l11.1-8.5c1.3,5.6,4.5,13.8,6.6,18c-27.2,21.5-32.5,26.1-35.3,29.8
		c-1.6-4.9-6.6-13.7-9.9-17.6c3.5-2.4,7.5-7.6,7.5-14.5v-40h-15.3v-20H1507.1z M1490.4,2379.2c7.8,6.5,18.7,15.8,23.9,22.2
		l-14.3,14.4c-4.6-6.6-15.3-16.7-23-23.9L1490.4,2379.2z M1572.3,2377.8v9.1h30.7v14.5h-30.7v3.9h26.4v13.7h-26.4v3.9h35.3v14.7
		h-90.9v-14.7h34.8v-3.9h-26.2v-13.7h26.2v-3.9h-30.4v-14.5h30.4v-9.1H1572.3z M1598.6,2441.6v54c0,8.6-1.6,13.5-7.5,16.3
		c-5.8,2.9-13.2,3-23.2,3c-0.7-5.2-3.2-12.8-5.5-17.7c5,0.4,12,0.3,13.8,0.3s2.6-0.6,2.6-2.3v-0.9h-33.3v20.6h-19.3v-73.3H1598.6z
		 M1578.8,2461.7v-5.2h-33.3v5.2H1578.8z M1545.6,2480.7h33.3v-6h-33.3V2480.7z"/>
	<path class="st2" d="M1625.3,2492.6c4.2-1,7.2-3.2,11.8-7.1c2.6-2,7.6-6.6,13.2-12.8h-32v-20.2h129.7v20.2h-31.5
		c9.6,9.8,21.5,22.3,27.4,31.4l-20,10.9c-1.7-3-4.3-6.8-7.2-10.7c-66,6.2-76.3,6.9-84.1,9.9
		C1631.5,2509.8,1627.9,2498.6,1625.3,2492.6z M1738.4,2386c-4.5,5.3-8.9,10.2-12.7,14.1h19.6v31.5H1729v13.8h-93.5v-13.8h-14.3
		v-31.5h18.7c-2.2-4.6-5.3-9.8-8.4-13.8l19.4-7.6c4.6,5.3,9.2,12.7,11.4,17.9l-8.2,3.6h18.3v-22.5h22.2v22.5h16.8l-7.8-2.6
		c4-5.2,8.8-12.5,11.4-18L1738.4,2386z M1722.8,2425.7v-7.8h-80.2v7.8H1722.8z M1707.3,2472.7h-26.5c-5.2,5.9-11.1,11.8-17.4,17.3
		l39.2-2.7l-7.5-8.2L1707.3,2472.7z"/>
	<path class="st2" d="M1848.8,2438.1v19.2h-9.4v23.2l13.1-3.5l2.9,18c-14.3,4.3-29.5,8.8-42,12.4l-4.2-15.4
		c-22.5,14.7-27.4,17.9-30.1,20.9c-1.4-5-6.2-14.1-9.5-18.3c3.6-2.2,8.1-7.2,8.1-13.7v-39.2h-15.3v-20h35.1v56.3l11.1-6.9
		c0.9,4.8,2.7,11.5,4.3,16l7.5-1.7v-28.1h-9.9v-19.2H1848.8z M1781,2379.2c7.9,6.3,18.9,15.7,23.9,22.2l-14.3,14.4
		c-4.6-6.8-15.1-16.8-23-23.9L1781,2379.2z M1870.6,2379.1v8.1l13-7.9c4.9,5.8,10.7,13.5,13,18.9l-9.5,6h8.2v19.9H1871
		c1.3,34.8,4.3,60.8,7.3,60.9c1.4,0,2.3-6.6,2.6-19c3.5,4.5,13.1,10.4,16.3,12.2c-4,30.1-13.5,35.3-19.7,35.3
		c-18.4-0.1-24.9-32.3-27.2-89.4h-43.9v-19.9h43.3l-0.4-25.1H1870.6z M1870.4,2389l0.1,15.1h9.4
		C1877.6,2399.4,1874,2393.6,1870.4,2389z"/>
	<path class="st2" d="M1982.2,2385v44.6h-19.4v10.7h20.7v42.5c0,6.5-0.7,11.1-4.5,13.8c-3.6,2.9-7.5,3.2-12.5,3.2
		c-0.4-4-2-9.5-3.7-13.8v28.5h-17.3v-57.2h-4v42.6h-14.8v-24c-1.9,13.1-4.9,26.1-9.8,36c-3.2-3.5-11.2-9.5-15.4-11.5
		c8.9-19.3,9.5-48,9.5-68.4V2385H1982.2z M1929.3,2429.6v2.3l-0.1,8.4h16.3v-10.7H1929.3z M1929.3,2411.2h33.3v-7.8h-33.3V2411.2z
		 M1965.9,2483.8c0.9,0,1.2-0.3,1.2-1.4v-25.1h-4.3v26.4L1965.9,2483.8z M2007.5,2391.2v85.5h-19.4v-85.5H2007.5z M2035.9,2380.5
		v110.3c0,10.5-1.9,16-7.6,19.4c-5.9,3.3-14.5,4-25.9,4c-0.7-5.8-3.6-15-6.2-20.9c6.9,0.3,14.1,0.3,16.6,0.3c2.3,0,3.2-0.7,3.2-3
		v-110.2H2035.9z"/>
	<path class="st2" d="M2073.9,2473.5c-3.5,9.2-9.1,19.3-14.5,25.5c-3-2.6-9.5-7.3-13.2-9.6c5-5.2,9.4-12.8,11.8-20L2073.9,2473.5z
		 M2088.6,2376.8c1.9,4.5,3.9,10.1,5.5,14.8h22v16.8H2100l10.9,2l-5.8,12.8h13.2v17h-24.9v8.8h22v17.4h-22v27.6
		c0,8.1-1.3,12.5-6.3,15.3c-5,2.7-11.2,3-19.4,3c-0.6-4.9-3-12.1-5.3-16.8c3.9,0.1,8.6,0.1,10.2,0.1s2-0.4,2-2v-27.2h-25.3v-17.4
		h25.3v-8.8h-26.4v-17h12.4c-0.6-3.7-1.9-8.5-3.5-12.1l11.1-2.7h-17.7v-16.8h22.9c-1-3.6-2.3-7.3-3.5-10.5L2088.6,2376.8z
		 M2078.4,2421.8l-5.5,1.4h13.7c1.7-4.5,3.9-10.2,5-14.8h-17.4C2076.2,2412.6,2077.8,2418.1,2078.4,2421.8z M2107.5,2467.6
		c3.7,5.5,7.9,12.2,10.5,17.3c3.6-13.4,4-28.9,4-41.8v-51.7c15.7-3,32.5-7.9,43.2-13.1l15.8,15.4c-11.8,4.8-26.1,8.5-39.6,11.1v20
		h42.2v19.3h-12.1v69.7h-20.3v-69.7h-9.8c0,21.3-2,50.8-13.8,68.4c-3.3-3.6-11.8-10.1-16.1-12.4c2.3-3.6,4-7.5,5.5-11.8l-12,7.5
		c-2.3-5.5-7.1-14.3-10.9-20.6L2107.5,2467.6z"/>
	<path class="st2" d="M2270.9,2437.3v26.1c0,21.3-13.1,40.8-65.4,51.6c-2.4-4.5-8.4-12.7-13.1-16.8c47.5-8.4,56.7-21.9,56.7-35.1
		v-25.6H2270.9z M2241.1,2413.9c1.2-3.3,2-7.1,2.9-10.7h-47.4V2384h127.1v19.3H2267l-5,10.7h52.7v66.4h-22.6v-47.2h-63.5v47.8h-21.5
		v-67H2241.1z M2275.6,2474.3c15.7,5.9,39.3,16.4,51,24l-12.8,16.4c-10.7-7.8-33.6-19.3-50-26.2L2275.6,2474.3z"/>
	<path class="st2" d="M2469.6,2385.3v19.7h-56.4l-3.2,10.1h53.3v99.5H2442v-7.2h-78.2v7.2h-20.2v-99.5h44.2l1.4-10.1H2338v-19.7
		H2469.6z M2375.1,2488.2v-54h-11.4v54H2375.1z M2411.1,2441v-6.8h-17.4v6.8H2411.1z M2393.7,2464.8h17.4v-7.6h-17.4V2464.8z
		 M2393.7,2488.2h17.4v-7.3h-17.4V2488.2z M2442,2434.2h-12.1v54h12.1V2434.2z"/>
</g>
</svg>
